<svg width="251" height="118" viewBox="0 0 251 118" fill="none" xmlns="http://www.w3.org/2000/svg">
<path d="M56.9531 73.3125C56.9531 75.9062 56.4688 78.1406 55.5 80.0156C54.5625 81.8906 53.2969 83.4844 51.7031 84.7969C50.1094 86.1094 48.2656 87.1875 46.1719 88.0312C44.1094 88.8438 41.9531 89.4844 39.7031 89.9531C37.4531 90.4219 35.1875 90.7344 32.9062 90.8906C30.6562 91.0469 28.5469 91.125 26.5781 91.125C24.6406 91.125 22.625 91.0469 20.5312 90.8906C18.4688 90.7656 16.4062 90.5312 14.3438 90.1875C12.2812 89.8438 10.25 89.3906 8.25 88.8281C6.25 88.2344 4.35938 87.5 2.57812 86.625L2.48438 26.25C4.23438 25.5313 6.09375 24.8906 8.0625 24.3281C10.0312 23.7344 12.0312 23.25 14.0625 22.875C16.125 22.4687 18.1719 22.1719 20.2031 21.9844C22.2344 21.7656 24.2031 21.6562 26.1094 21.6562C28.3281 21.6562 30.5625 21.7969 32.8125 22.0781C35.0938 22.3594 37.2812 22.8281 39.375 23.4844C41.4688 24.1406 43.4219 25 45.2344 26.0625C47.0469 27.0938 48.625 28.375 49.9688 29.9062C51.3438 31.4375 52.4062 33.2188 53.1562 35.25C53.9375 37.2812 54.3281 39.625 54.3281 42.2812C54.3281 44.0312 54.0781 45.6719 53.5781 47.2031C53.0781 48.7344 52.3594 50.1094 51.4219 51.3281C50.4844 52.5469 49.3438 53.5938 48 54.4688C46.6562 55.3125 45.1406 55.9375 43.4531 56.3438C45.4844 56.875 47.3281 57.6562 48.9844 58.6875C50.6719 59.7188 52.0938 60.9688 53.25 62.4375C54.4375 63.9062 55.3438 65.5625 55.9688 67.4062C56.625 69.25 56.9531 71.2188 56.9531 73.3125ZM33.1406 46.5938C33.1406 45.6875 32.9531 44.9219 32.5781 44.2969C32.2031 43.6406 31.7344 43.1094 31.1719 42.7031C30.6406 42.2969 30.0469 42 29.3906 41.8125C28.7656 41.625 28.2031 41.5312 27.7031 41.5312C27.0781 41.5312 26.4688 41.625 25.875 41.8125C25.2812 42 24.7031 42.2188 24.1406 42.4688L23.8594 52.875C24.5781 52.875 25.4688 52.8125 26.5312 52.6875C27.5938 52.5625 28.6094 52.2969 29.5781 51.8906C30.5781 51.4531 31.4219 50.8281 32.1094 50.0156C32.7969 49.1719 33.1406 48.0312 33.1406 46.5938ZM26.4844 61.875C25.5781 61.875 24.7031 61.9688 23.8594 62.1562L23.6719 72.8438C24.1406 72.9375 24.5938 73.0312 25.0312 73.125C25.5 73.1875 25.9531 73.2188 26.3906 73.2188C27.0469 73.2188 27.7656 73.1562 28.5469 73.0312C29.3281 72.875 30.0625 72.5938 30.75 72.1875C31.4375 71.75 32 71.1719 32.4375 70.4531C32.9062 69.7344 33.1406 68.7812 33.1406 67.5938C33.1406 66.4062 32.9062 65.4375 32.4375 64.6875C32 63.9375 31.4531 63.3594 30.7969 62.9531C30.1406 62.5156 29.4219 62.2344 28.6406 62.1094C27.8594 61.9531 27.1406 61.875 26.4844 61.875ZM116.484 56.9062C116.484 59.75 116.156 62.5 115.5 65.1562C114.844 67.7812 113.891 70.25 112.641 72.5625C111.422 74.875 109.922 77 108.141 78.9375C106.391 80.8438 104.406 82.4844 102.188 83.8594C100 85.2344 97.6094 86.3125 95.0156 87.0938C92.4219 87.8438 89.6719 88.2188 86.7656 88.2188C83.9531 88.2188 81.2656 87.8594 78.7031 87.1406C76.1719 86.4219 73.7969 85.4219 71.5781 84.1406C69.3594 82.8281 67.3438 81.2656 65.5312 79.4531C63.75 77.6094 62.2188 75.5781 60.9375 73.3594C59.6875 71.1094 58.7031 68.7031 57.9844 66.1406C57.2969 63.5781 56.9531 60.9062 56.9531 58.125C56.9531 55.4062 57.2812 52.75 57.9375 50.1562C58.5938 47.5312 59.5312 45.0625 60.75 42.75C62 40.4375 63.5 38.3125 65.25 36.375C67 34.4375 68.9531 32.7656 71.1094 31.3594C73.2969 29.9531 75.6562 28.8594 78.1875 28.0781C80.7188 27.2969 83.3906 26.9062 86.2031 26.9062C90.7344 26.9062 94.8594 27.6094 98.5781 29.0156C102.328 30.4219 105.516 32.4375 108.141 35.0625C110.797 37.6562 112.844 40.8125 114.281 44.5312C115.75 48.2188 116.484 52.3438 116.484 56.9062ZM95.6719 58.125C95.6719 56.7812 95.4688 55.4844 95.0625 54.2344C94.6875 52.9531 94.125 51.8281 93.375 50.8594C92.625 49.8594 91.6875 49.0625 90.5625 48.4688C89.4688 47.8438 88.2031 47.5312 86.7656 47.5312C85.2969 47.5312 83.9844 47.7969 82.8281 48.3281C81.6719 48.8594 80.6719 49.5938 79.8281 50.5312C79.0156 51.4375 78.3906 52.5156 77.9531 53.7656C77.5156 54.9844 77.2969 56.2812 77.2969 57.6562C77.2969 58.9688 77.4844 60.2812 77.8594 61.5938C78.2344 62.9062 78.7969 64.0938 79.5469 65.1562C80.2969 66.2188 81.2188 67.0781 82.3125 67.7344C83.4375 68.3906 84.7344 68.7188 86.2031 68.7188C87.6719 68.7188 88.9844 68.4375 90.1406 67.875C91.3281 67.2812 92.3281 66.5 93.1406 65.5312C93.9531 64.5312 94.5781 63.3906 95.0156 62.1094C95.4531 60.8281 95.6719 59.5 95.6719 58.125ZM192.234 21.6562L187.922 90.4688L166.547 91.4062L166.734 55.125L157.078 84.375H148.828L141.422 58.2188L141.328 88.5938L119.672 89.25L120.609 24.4688L144.703 23.5312L154.266 54.5625L167.016 21.6562H192.234ZM250.266 73.3125C250.266 75.9062 249.781 78.1406 248.812 80.0156C247.875 81.8906 246.609 83.4844 245.016 84.7969C243.422 86.1094 241.578 87.1875 239.484 88.0312C237.422 88.8438 235.266 89.4844 233.016 89.9531C230.766 90.4219 228.5 90.7344 226.219 90.8906C223.969 91.0469 221.859 91.125 219.891 91.125C217.953 91.125 215.938 91.0469 213.844 90.8906C211.781 90.7656 209.719 90.5312 207.656 90.1875C205.594 89.8438 203.562 89.3906 201.562 88.8281C199.562 88.2344 197.672 87.5 195.891 86.625L195.797 26.25C197.547 25.5313 199.406 24.8906 201.375 24.3281C203.344 23.7344 205.344 23.25 207.375 22.875C209.438 22.4687 211.484 22.1719 213.516 21.9844C215.547 21.7656 217.516 21.6562 219.422 21.6562C221.641 21.6562 223.875 21.7969 226.125 22.0781C228.406 22.3594 230.594 22.8281 232.688 23.4844C234.781 24.1406 236.734 25 238.547 26.0625C240.359 27.0938 241.938 28.375 243.281 29.9062C244.656 31.4375 245.719 33.2188 246.469 35.25C247.25 37.2812 247.641 39.625 247.641 42.2812C247.641 44.0312 247.391 45.6719 246.891 47.2031C246.391 48.7344 245.672 50.1094 244.734 51.3281C243.797 52.5469 242.656 53.5938 241.312 54.4688C239.969 55.3125 238.453 55.9375 236.766 56.3438C238.797 56.875 240.641 57.6562 242.297 58.6875C243.984 59.7188 245.406 60.9688 246.562 62.4375C247.75 63.9062 248.656 65.5625 249.281 67.4062C249.938 69.25 250.266 71.2188 250.266 73.3125ZM226.453 46.5938C226.453 45.6875 226.266 44.9219 225.891 44.2969C225.516 43.6406 225.047 43.1094 224.484 42.7031C223.953 42.2969 223.359 42 222.703 41.8125C222.078 41.625 221.516 41.5312 221.016 41.5312C220.391 41.5312 219.781 41.625 219.188 41.8125C218.594 42 218.016 42.2188 217.453 42.4688L217.172 52.875C217.891 52.875 218.781 52.8125 219.844 52.6875C220.906 52.5625 221.922 52.2969 222.891 51.8906C223.891 51.4531 224.734 50.8281 225.422 50.0156C226.109 49.1719 226.453 48.0312 226.453 46.5938ZM219.797 61.875C218.891 61.875 218.016 61.9688 217.172 62.1562L216.984 72.8438C217.453 72.9375 217.906 73.0312 218.344 73.125C218.812 73.1875 219.266 73.2188 219.703 73.2188C220.359 73.2188 221.078 73.1562 221.859 73.0312C222.641 72.875 223.375 72.5938 224.062 72.1875C224.75 71.75 225.312 71.1719 225.75 70.4531C226.219 69.7344 226.453 68.7812 226.453 67.5938C226.453 66.4062 226.219 65.4375 225.75 64.6875C225.312 63.9375 224.766 63.3594 224.109 62.9531C223.453 62.5156 222.734 62.2344 221.953 62.1094C221.172 61.9531 220.453 61.875 219.797 61.875Z" fill="#FEFEFE"/>
<path d="M126.873 16.248L117.326 25.7949L122.191 30.6602C123.917 32.3859 123.917 35.1766 122.191 36.884L118.997 40.0785C121.163 44.8703 122.375 50.1945 122.375 55.7941C122.375 76.8891 105.282 93.9816 84.1875 93.9816C63.0926 93.9816 46 76.9074 46 55.8125C46 34.7176 63.0926 17.625 84.1875 17.625C89.7871 17.625 95.1113 18.8367 99.9031 21.0031L103.098 17.8086C104.823 16.0828 107.614 16.0828 109.321 17.8086L114.187 22.6738L123.734 13.127L126.873 16.248ZM137.797 11.0156H133.391C132.179 11.0156 131.188 12.007 131.188 13.2188C131.188 14.4305 132.179 15.4219 133.391 15.4219H137.797C139.009 15.4219 140 14.4305 140 13.2188C140 12.007 139.009 11.0156 137.797 11.0156ZM126.781 0C125.57 0 124.578 0.991406 124.578 2.20312V6.60938C124.578 7.82109 125.57 8.8125 126.781 8.8125C127.993 8.8125 128.984 7.82109 128.984 6.60938V2.20312C128.984 0.991406 127.993 0 126.781 0ZM133.005 10.0977L136.126 6.97656C136.989 6.11367 136.989 4.71836 136.126 3.85547C135.263 2.99258 133.868 2.99258 133.005 3.85547L129.884 6.97656C129.021 7.83945 129.021 9.23477 129.884 10.0977C130.765 10.9605 132.161 10.9605 133.005 10.0977ZM120.557 10.0977C121.42 10.9605 122.816 10.9605 123.679 10.0977C124.541 9.23477 124.541 7.83945 123.679 6.97656L120.557 3.85547C119.695 2.99258 118.299 2.99258 117.436 3.85547C116.573 4.71836 116.573 6.11367 117.436 6.97656L120.557 10.0977ZM133.005 16.3398C132.142 15.477 130.747 15.477 129.884 16.3398C129.021 17.2027 129.021 18.598 129.884 19.4609L133.005 22.582C133.868 23.4449 135.263 23.4449 136.126 22.582C136.989 21.7191 136.989 20.3238 136.126 19.4609L133.005 16.3398ZM66.5625 49.9375C66.5625 43.4566 71.8316 38.1875 78.3125 38.1875C79.9281 38.1875 81.25 36.8656 81.25 35.25C81.25 33.6344 79.9281 32.3125 78.3125 32.3125C68.6004 32.3125 60.6875 40.2254 60.6875 49.9375C60.6875 51.5531 62.0094 52.875 63.625 52.875C65.2406 52.875 66.5625 51.5531 66.5625 49.9375Z" fill="#FF8C42"/>
<path d="M16.1317 3.36554L11.549 9.4517L15.4091 15.9217L10.9976 16.671L8.10727 12.7232L7.95515 16.8538L4 17L4.30424 3L8.73477 3.2376L8.3925 7.36815L11.3399 3L16.1317 3.36554Z" fill="#FEFEFE"/>
<path d="M28.9669 3.34726L28.2824 15.7389L23.3004 16.1775L20.6383 9.54308L20.2199 16.3055H15.9415L16.2838 3.34726L21.0376 3.12794L24.3272 9.70757L24.4793 3.49347L28.9669 3.34726Z" fill="#FEFEFE"/>
<path d="M41.3648 10C41.3648 10.5544 41.2982 11.0905 41.1651 11.6084C41.032 12.1201 40.8387 12.6014 40.5852 13.0522C40.338 13.503 40.0337 13.9173 39.6724 14.295C39.3175 14.6667 38.915 14.9865 38.465 15.2546C38.0213 15.5226 37.5364 15.7328 37.0103 15.8851C36.4842 16.0313 35.9265 16.1044 35.337 16.1044C34.7665 16.1044 34.2214 16.0344 33.7017 15.8943C33.1883 15.7541 32.7066 15.5592 32.2565 15.3094C31.8065 15.0535 31.3977 14.7489 31.03 14.3956C30.6688 14.0361 30.3582 13.6401 30.0983 13.2076C29.8448 12.7689 29.6451 12.2998 29.4993 11.8003C29.3599 11.3007 29.2902 10.7798 29.2902 10.2376C29.2902 9.70757 29.3567 9.18973 29.4898 8.68407C29.6229 8.17232 29.8131 7.69104 30.0603 7.24021C30.3138 6.78938 30.6181 6.37511 30.973 5.99739C31.328 5.61967 31.7241 5.29373 32.1615 5.01958C32.6051 4.74543 33.0837 4.5322 33.5971 4.3799C34.1105 4.22759 34.6524 4.15144 35.2229 4.15144C36.142 4.15144 36.9786 4.28851 37.7329 4.56266C38.4935 4.83681 39.14 5.22977 39.6724 5.74151C40.2112 6.24717 40.6264 6.86249 40.9179 7.58747C41.2158 8.30635 41.3648 9.11053 41.3648 10ZM37.1434 10.2376C37.1434 9.97563 37.1022 9.7228 37.0198 9.47911C36.9438 9.22933 36.8297 9.01001 36.6776 8.82115C36.5254 8.6262 36.3353 8.47084 36.1071 8.35509C35.8853 8.23325 35.6285 8.17232 35.337 8.17232C35.0391 8.17232 34.7729 8.22411 34.5383 8.32768C34.3038 8.43124 34.101 8.57441 33.9299 8.75718C33.7651 8.93386 33.6383 9.14404 33.5496 9.38773C33.4608 9.62533 33.4165 9.87815 33.4165 10.1462C33.4165 10.4021 33.4545 10.658 33.5305 10.9138C33.6066 11.1697 33.7207 11.4012 33.8728 11.6084C34.0249 11.8155 34.2119 11.983 34.4338 12.111C34.6619 12.2389 34.925 12.3029 35.2229 12.3029C35.5208 12.3029 35.787 12.248 36.0215 12.1384C36.2624 12.0226 36.4652 11.8703 36.63 11.6815C36.7948 11.4865 36.9216 11.2641 37.0103 11.0144C37.0991 10.7646 37.1434 10.5057 37.1434 10.2376Z" fill="#FEFEFE"/>
<path d="M58.8397 3.76762L56.6149 16.4334L51.2146 16.5431L50.0547 9.98172L48.8948 16.0679L43.4945 16.2507L41.2507 3.76762L45.9665 3.36554L46.9172 10.9504L48.1912 3.36554H51.8992L53.3824 11.0418L54.143 3.36554L58.8397 3.76762Z" fill="#FEFEFE"/>
<path d="M67.6152 11.6084L67.2159 15.6658L59.2105 16.2689L59.5148 3.21932H64.4587L63.7551 11.6084H67.6152Z" fill="#FEFEFE"/>
<path d="M77.0658 3.27415C77.0277 3.84682 76.9929 4.4134 76.9612 4.97389C76.9295 5.53438 76.8883 6.10096 76.8376 6.67363L72.8064 6.87467L72.7113 8.02611H75.5445L75.3354 10.859L72.4831 10.9504L72.388 12.2846H76.4192C76.3812 12.9547 76.34 13.6218 76.2956 14.2859C76.2576 14.9439 76.2227 15.6049 76.191 16.2689L67.9955 16.4517L68.2998 3.27415H77.0658Z" fill="#FEFEFE"/>
<path d="M88.1706 9.19582C88.1706 10.0487 88.0565 10.8133 87.8283 11.4896C87.6002 12.1658 87.2801 12.7659 86.8681 13.2898C86.4624 13.8077 85.9775 14.2493 85.4134 14.6149C84.8493 14.9804 84.2313 15.282 83.5594 15.5196C82.8876 15.7511 82.1713 15.9217 81.4107 16.0313C80.6564 16.141 79.88 16.1958 79.0814 16.1958C78.7834 16.1958 78.4919 16.1897 78.2067 16.1775C77.9214 16.1593 77.6299 16.1349 77.332 16.1044L77.5982 4.20627C78.2954 3.99304 79.0116 3.84378 79.7469 3.75849C80.4885 3.6671 81.2237 3.62141 81.9526 3.62141C82.859 3.62141 83.6925 3.74326 84.4531 3.98695C85.2137 4.23064 85.8698 4.59008 86.4212 5.06527C86.9726 5.53438 87.4005 6.11619 87.7047 6.8107C88.0153 7.49913 88.1706 8.29417 88.1706 9.19582ZM81.7054 12.705C82.0857 12.6501 82.4312 12.5405 82.7418 12.376C83.0587 12.2054 83.3312 11.9983 83.5594 11.7546C83.7876 11.5048 83.9619 11.2245 84.0823 10.9138C84.2091 10.597 84.2725 10.262 84.2725 9.90862C84.2725 9.56136 84.2345 9.23847 84.1584 8.93995C84.0823 8.63533 83.9587 8.37337 83.7876 8.15405C83.6165 7.92863 83.3915 7.75196 83.1126 7.62402C82.8337 7.48999 82.4914 7.41688 82.0857 7.4047L81.7054 12.705Z" fill="#FEFEFE"/>
<path d="M100.264 14.4047C99.9663 14.7641 99.5987 15.0779 99.1614 15.346C98.724 15.614 98.255 15.8364 97.7542 16.0131C97.2535 16.1897 96.7401 16.3238 96.214 16.4151C95.6879 16.5004 95.1872 16.5431 94.7118 16.5431C93.7927 16.5431 92.9466 16.3938 92.1733 16.0953C91.4 15.7968 90.7313 15.3825 90.1672 14.8525C89.6094 14.3164 89.1721 13.6797 88.8551 12.9426C88.5382 12.2054 88.3798 11.4012 88.3798 10.53C88.3798 9.86597 88.459 9.22019 88.6175 8.59269C88.7759 7.96519 89.0009 7.37728 89.2925 6.82898C89.5904 6.28068 89.9517 5.77807 90.3764 5.32115C90.801 4.86423 91.2827 4.47128 91.8215 4.1423C92.3603 3.81332 92.9497 3.56049 93.5899 3.38381C94.2364 3.20104 94.921 3.10966 95.6436 3.10966C95.9161 3.10966 96.2077 3.12185 96.5183 3.14621C96.8288 3.16449 97.1362 3.20104 97.4405 3.25587C97.7511 3.30461 98.0521 3.37467 98.3437 3.46606C98.6353 3.55744 98.9015 3.67015 99.1423 3.80418L98.8761 7.29504C98.5212 7.1671 98.1536 7.08181 97.7733 7.03916C97.3993 6.99043 97.0317 6.96606 96.6704 6.96606C96.1633 6.96606 95.6879 7.03307 95.2442 7.1671C94.8069 7.29504 94.4234 7.48695 94.0938 7.74282C93.7706 7.99869 93.5139 8.31854 93.3237 8.70235C93.1336 9.08616 93.0385 9.5309 93.0385 10.0366C93.0385 10.3534 93.0828 10.661 93.1716 10.9595C93.2603 11.252 93.3934 11.5139 93.5709 11.7454C93.7547 11.9708 93.9797 12.1536 94.2459 12.2937C94.5185 12.4339 94.8322 12.5039 95.1872 12.5039C95.4281 12.5039 95.6753 12.4735 95.9288 12.4125C96.1887 12.3516 96.4105 12.248 96.5943 12.1018L96.6323 11.389L94.3505 11.3525L94.4646 8.61097C95.409 8.5805 96.3535 8.55614 97.2979 8.53786C98.2423 8.51349 99.1931 8.48303 100.15 8.44648L100.264 14.4047Z" fill="#FEFEFE"/>
<path d="M110 3.27415C109.962 3.84682 109.927 4.4134 109.895 4.97389C109.864 5.53438 109.823 6.10096 109.772 6.67363L105.741 6.87467L105.646 8.02611H108.479L108.27 10.859L105.417 10.9504L105.322 12.2846H109.353C109.315 12.9547 109.274 13.6218 109.23 14.2859C109.192 14.9439 109.157 15.6049 109.125 16.2689L100.93 16.4517L101.234 3.27415H110Z" fill="#FEFEFE"/>
</svg>
