<svg width="298" height="46" viewBox="0 0 298 46" fill="none" xmlns="http://www.w3.org/2000/svg">
<path d="M23.1855 9.82812L14.7129 21.5352L21.8496 33.9805L13.6934 35.4219L8.34961 27.8281L8.06836 35.7734L0.755859 36.0547L1.31836 9.125L9.50977 9.58203L8.87695 17.5273L14.3262 9.125L23.1855 9.82812ZM46.916 9.79297L45.6504 33.6289L36.4395 34.4727L31.5176 21.7109L30.7441 34.7188H22.834L23.4668 9.79297L32.2559 9.37109L38.3379 22.0273L38.6191 10.0742L46.916 9.79297ZM69.8379 22.5898C69.8379 23.6562 69.7148 24.6875 69.4688 25.6836C69.2227 26.668 68.8652 27.5938 68.3965 28.4609C67.9395 29.3281 67.377 30.125 66.709 30.8516C66.0527 31.5664 65.3086 32.1816 64.4766 32.6973C63.6562 33.2129 62.7598 33.6172 61.7871 33.9102C60.8145 34.1914 59.7832 34.332 58.6934 34.332C57.6387 34.332 56.6309 34.1973 55.6699 33.9277C54.7207 33.6582 53.8301 33.2832 52.998 32.8027C52.166 32.3105 51.4102 31.7246 50.7305 31.0449C50.0625 30.3535 49.4883 29.5918 49.0078 28.7598C48.5391 27.916 48.1699 27.0137 47.9004 26.0527C47.6426 25.0918 47.5137 24.0898 47.5137 23.0469C47.5137 22.0273 47.6367 21.0312 47.8828 20.0586C48.1289 19.0742 48.4805 18.1484 48.9375 17.2812C49.4062 16.4141 49.9688 15.6172 50.625 14.8906C51.2812 14.1641 52.0137 13.5371 52.8223 13.0098C53.6426 12.4824 54.5273 12.0723 55.4766 11.7793C56.4258 11.4863 57.4277 11.3398 58.4824 11.3398C60.1816 11.3398 61.7285 11.6035 63.123 12.1309C64.5293 12.6582 65.7246 13.4141 66.709 14.3984C67.7051 15.3711 68.4727 16.5547 69.0117 17.9492C69.5625 19.332 69.8379 20.8789 69.8379 22.5898ZM62.0332 23.0469C62.0332 22.543 61.957 22.0566 61.8047 21.5879C61.6641 21.1074 61.4531 20.6855 61.1719 20.3223C60.8906 19.9473 60.5391 19.6484 60.1172 19.4258C59.707 19.1914 59.2324 19.0742 58.6934 19.0742C58.1426 19.0742 57.6504 19.1738 57.2168 19.373C56.7832 19.5723 56.4082 19.8477 56.0918 20.1992C55.7871 20.5391 55.5527 20.9434 55.3887 21.4121C55.2246 21.8691 55.1426 22.3555 55.1426 22.8711C55.1426 23.3633 55.2129 23.8555 55.3535 24.3477C55.4941 24.8398 55.7051 25.2852 55.9863 25.6836C56.2676 26.082 56.6133 26.4043 57.0234 26.6504C57.4453 26.8965 57.9316 27.0195 58.4824 27.0195C59.0332 27.0195 59.5254 26.9141 59.959 26.7031C60.4043 26.4805 60.7793 26.1875 61.084 25.8242C61.3887 25.4492 61.623 25.0215 61.7871 24.541C61.9512 24.0605 62.0332 23.5625 62.0332 23.0469ZM102.146 10.6016L98.0332 34.9648L88.0488 35.1758L85.9043 22.5547L83.7598 34.2617L73.7754 34.6133L69.627 10.6016L78.3457 9.82812L80.1035 24.418L82.459 9.82812H89.3145L92.0566 24.5938L93.4629 9.82812L102.146 10.6016ZM119.602 9.65234C119.531 10.7539 119.467 11.8438 119.408 12.9219C119.35 14 119.273 15.0898 119.18 16.1914L111.727 16.5781L111.551 18.793H116.789L116.402 24.2422L111.129 24.418L110.953 26.9844H115.312H118.406C118.336 28.2734 118.26 29.5566 118.178 30.834C118.107 32.0996 118.043 33.3711 117.984 34.6484L102.832 35L103.395 9.65234H119.602ZM135.668 24.9805L134.93 32.7852L120.129 33.9453C120.199 29.8555 120.275 25.7891 120.357 21.7461C120.451 17.7031 120.562 13.6367 120.691 9.54688H129.832C129.562 12.1133 129.305 14.6797 129.059 17.2461C128.812 19.8008 128.637 22.3789 128.531 24.9805C129.082 25.0039 129.627 25.0156 130.166 25.0156C130.705 25.0156 131.25 25.0156 131.801 25.0156C132.457 25.0156 133.102 25.0098 133.734 24.998C134.367 24.9863 135.012 24.9805 135.668 24.9805ZM156.41 21.043C156.41 22.6836 156.199 24.166 155.777 25.4902C155.355 26.8027 154.764 27.9746 154.002 29.0059C153.252 30.0254 152.355 30.9043 151.312 31.6426C150.27 32.3809 149.127 32.9902 147.885 33.4707C146.643 33.9395 145.318 34.291 143.912 34.5254C142.518 34.748 141.082 34.8594 139.605 34.8594C139.055 34.8594 138.516 34.8477 137.988 34.8242C137.461 34.7891 136.922 34.7422 136.371 34.6836L136.863 11.0938C138.152 10.6836 139.477 10.3965 140.836 10.2324C142.207 10.0566 143.566 9.96875 144.914 9.96875C146.59 9.96875 148.131 10.2207 149.537 10.7246C150.943 11.2285 152.156 11.9551 153.176 12.9043C154.195 13.8535 154.986 15.0137 155.549 16.3848C156.123 17.7559 156.41 19.3086 156.41 21.043ZM149.203 22.168C149.215 21.5352 149.145 20.9258 148.992 20.3398C148.852 19.7539 148.611 19.2383 148.271 18.793C147.943 18.3359 147.521 17.9727 147.006 17.7031C146.49 17.4219 145.875 17.2695 145.16 17.2461L144.457 28.1445C145.16 28.0391 145.799 27.8105 146.373 27.459C146.947 27.0957 147.439 26.6562 147.85 26.1406C148.271 25.6133 148.594 25.0332 148.816 24.4004C149.051 23.7559 149.18 23.0938 149.203 22.4141V22.168ZM178.699 31.4141C178.148 32.1055 177.469 32.709 176.66 33.2246C175.852 33.7402 174.984 34.168 174.059 34.5078C173.133 34.8477 172.184 35.0996 171.211 35.2637C170.238 35.4395 169.312 35.5273 168.434 35.5273C166.734 35.5273 165.17 35.2227 163.74 34.6133C162.311 34.0039 161.074 33.166 160.031 32.0996C159 31.0215 158.191 29.7559 157.605 28.3027C157.02 26.8496 156.727 25.2852 156.727 23.6094C156.727 22.332 156.873 21.084 157.166 19.8652C157.459 18.6348 157.875 17.4805 158.414 16.4023C158.965 15.3125 159.633 14.3164 160.418 13.4141C161.203 12.5 162.094 11.7148 163.09 11.0586C164.086 10.4023 165.176 9.89258 166.359 9.5293C167.543 9.16602 168.809 8.98438 170.156 8.98438C170.66 8.98438 171.199 9.00781 171.773 9.05469C172.348 9.08984 172.916 9.16016 173.479 9.26562C174.053 9.35937 174.609 9.49414 175.148 9.66992C175.688 9.8457 176.18 10.0625 176.625 10.3203L176.133 17.0352C175.477 16.7891 174.797 16.625 174.094 16.543C173.402 16.4492 172.723 16.4023 172.055 16.4023C171.117 16.4023 170.238 16.5488 169.418 16.8418C168.609 17.123 167.9 17.5332 167.291 18.0723C166.693 18.6113 166.219 19.2676 165.867 20.041C165.516 20.8145 165.34 21.6875 165.34 22.6602C165.34 23.2695 165.422 23.8613 165.586 24.4355C165.75 24.998 165.996 25.502 166.324 25.9473C166.664 26.3809 167.08 26.7324 167.572 27.002C168.076 27.2715 168.656 27.4062 169.312 27.4062C169.758 27.4062 170.215 27.3477 170.684 27.2305C171.164 27.1133 171.574 26.9141 171.914 26.6328L171.984 25.2617L167.766 25.1914L167.977 19.918C169.723 19.8594 171.469 19.8125 173.215 19.7773C174.961 19.7305 176.719 19.6719 178.488 19.6016L178.699 31.4141ZM196.699 9.65234C196.629 10.7539 196.564 11.8438 196.506 12.9219C196.447 14 196.371 15.0898 196.277 16.1914L188.824 16.5781L188.648 18.793H193.887L193.5 24.2422L188.227 24.418L188.051 26.9844H192.41H195.504C195.434 28.2734 195.357 29.5566 195.275 30.834C195.205 32.0996 195.141 33.3711 195.082 34.6484L179.93 35L180.492 9.65234H196.699ZM224.807 28.7422C224.807 29.7148 224.625 30.5527 224.262 31.2559C223.91 31.959 223.436 32.5566 222.838 33.0488C222.24 33.541 221.549 33.9453 220.764 34.2617C219.99 34.5664 219.182 34.8066 218.338 34.9824C217.494 35.1582 216.645 35.2754 215.789 35.334C214.945 35.3926 214.154 35.4219 213.416 35.4219C212.689 35.4219 211.934 35.3926 211.148 35.334C210.375 35.2871 209.602 35.1992 208.828 35.0703C208.055 34.9414 207.293 34.7715 206.543 34.5605C205.793 34.3379 205.084 34.0625 204.416 33.7344L204.381 11.0938C205.037 10.8242 205.734 10.584 206.473 10.373C207.211 10.1504 207.961 9.96875 208.723 9.82812C209.496 9.67578 210.264 9.56445 211.025 9.49414C211.787 9.41211 212.525 9.37109 213.24 9.37109C214.072 9.37109 214.91 9.42383 215.754 9.5293C216.609 9.63477 217.43 9.81055 218.215 10.0566C219 10.3027 219.732 10.625 220.412 11.0234C221.092 11.4102 221.684 11.8906 222.188 12.4648C222.703 13.0391 223.102 13.707 223.383 14.4688C223.676 15.2305 223.822 16.1094 223.822 17.1055C223.822 17.7617 223.729 18.377 223.541 18.9512C223.354 19.5254 223.084 20.041 222.732 20.498C222.381 20.9551 221.953 21.3477 221.449 21.6758C220.945 21.9922 220.377 22.2266 219.744 22.3789C220.506 22.5781 221.197 22.8711 221.818 23.2578C222.451 23.6445 222.984 24.1133 223.418 24.6641C223.863 25.2148 224.203 25.8359 224.438 26.5273C224.684 27.2188 224.807 27.957 224.807 28.7422ZM215.877 18.7227C215.877 18.3828 215.807 18.0957 215.666 17.8613C215.525 17.6152 215.35 17.416 215.139 17.2637C214.939 17.1113 214.717 17 214.471 16.9297C214.236 16.8594 214.025 16.8242 213.838 16.8242C213.604 16.8242 213.375 16.8594 213.152 16.9297C212.93 17 212.713 17.082 212.502 17.1758L212.396 21.0781C212.666 21.0781 213 21.0547 213.398 21.0078C213.797 20.9609 214.178 20.8613 214.541 20.709C214.916 20.5449 215.232 20.3105 215.49 20.0059C215.748 19.6895 215.877 19.2617 215.877 18.7227ZM213.381 24.4531C213.041 24.4531 212.713 24.4883 212.396 24.5586L212.326 28.5664C212.502 28.6016 212.672 28.6367 212.836 28.6719C213.012 28.6953 213.182 28.707 213.346 28.707C213.592 28.707 213.861 28.6836 214.154 28.6367C214.447 28.5781 214.723 28.4727 214.98 28.3203C215.238 28.1562 215.449 27.9395 215.613 27.6699C215.789 27.4004 215.877 27.043 215.877 26.5977C215.877 26.1523 215.789 25.7891 215.613 25.5078C215.449 25.2266 215.244 25.0098 214.998 24.8574C214.752 24.6934 214.482 24.5879 214.189 24.541C213.896 24.4824 213.627 24.4531 213.381 24.4531ZM247.131 22.5898C247.131 23.6562 247.008 24.6875 246.762 25.6836C246.516 26.668 246.158 27.5938 245.689 28.4609C245.232 29.3281 244.67 30.125 244.002 30.8516C243.346 31.5664 242.602 32.1816 241.77 32.6973C240.949 33.2129 240.053 33.6172 239.08 33.9102C238.107 34.1914 237.076 34.332 235.986 34.332C234.932 34.332 233.924 34.1973 232.963 33.9277C232.014 33.6582 231.123 33.2832 230.291 32.8027C229.459 32.3105 228.703 31.7246 228.023 31.0449C227.355 30.3535 226.781 29.5918 226.301 28.7598C225.832 27.916 225.463 27.0137 225.193 26.0527C224.936 25.0918 224.807 24.0898 224.807 23.0469C224.807 22.0273 224.93 21.0312 225.176 20.0586C225.422 19.0742 225.773 18.1484 226.23 17.2812C226.699 16.4141 227.262 15.6172 227.918 14.8906C228.574 14.1641 229.307 13.5371 230.115 13.0098C230.936 12.4824 231.82 12.0723 232.77 11.7793C233.719 11.4863 234.721 11.3398 235.775 11.3398C237.475 11.3398 239.021 11.6035 240.416 12.1309C241.822 12.6582 243.018 13.4141 244.002 14.3984C244.998 15.3711 245.766 16.5547 246.305 17.9492C246.855 19.332 247.131 20.8789 247.131 22.5898ZM239.326 23.0469C239.326 22.543 239.25 22.0566 239.098 21.5879C238.957 21.1074 238.746 20.6855 238.465 20.3223C238.184 19.9473 237.832 19.6484 237.41 19.4258C237 19.1914 236.525 19.0742 235.986 19.0742C235.436 19.0742 234.943 19.1738 234.51 19.373C234.076 19.5723 233.701 19.8477 233.385 20.1992C233.08 20.5391 232.846 20.9434 232.682 21.4121C232.518 21.8691 232.436 22.3555 232.436 22.8711C232.436 23.3633 232.506 23.8555 232.646 24.3477C232.787 24.8398 232.998 25.2852 233.279 25.6836C233.561 26.082 233.906 26.4043 234.316 26.6504C234.738 26.8965 235.225 27.0195 235.775 27.0195C236.326 27.0195 236.818 26.9141 237.252 26.7031C237.697 26.4805 238.072 26.1875 238.377 25.8242C238.682 25.4492 238.916 25.0215 239.08 24.541C239.244 24.0605 239.326 23.5625 239.326 23.0469ZM275.537 9.37109L273.92 35.1758L265.904 35.5273L265.975 21.9219L262.354 32.8906H259.26L256.482 23.082L256.447 34.4727L248.326 34.7188L248.678 10.4258L257.713 10.0742L261.299 21.7109L266.08 9.37109H275.537ZM297.299 28.7422C297.299 29.7148 297.117 30.5527 296.754 31.2559C296.402 31.959 295.928 32.5566 295.33 33.0488C294.732 33.541 294.041 33.9453 293.256 34.2617C292.482 34.5664 291.674 34.8066 290.83 34.9824C289.986 35.1582 289.137 35.2754 288.281 35.334C287.438 35.3926 286.646 35.4219 285.908 35.4219C285.182 35.4219 284.426 35.3926 283.641 35.334C282.867 35.2871 282.094 35.1992 281.32 35.0703C280.547 34.9414 279.785 34.7715 279.035 34.5605C278.285 34.3379 277.576 34.0625 276.908 33.7344L276.873 11.0938C277.529 10.8242 278.227 10.584 278.965 10.373C279.703 10.1504 280.453 9.96875 281.215 9.82812C281.988 9.67578 282.756 9.56445 283.518 9.49414C284.279 9.41211 285.018 9.37109 285.732 9.37109C286.564 9.37109 287.402 9.42383 288.246 9.5293C289.102 9.63477 289.922 9.81055 290.707 10.0566C291.492 10.3027 292.225 10.625 292.904 11.0234C293.584 11.4102 294.176 11.8906 294.68 12.4648C295.195 13.0391 295.594 13.707 295.875 14.4688C296.168 15.2305 296.314 16.1094 296.314 17.1055C296.314 17.7617 296.221 18.377 296.033 18.9512C295.846 19.5254 295.576 20.041 295.225 20.498C294.873 20.9551 294.445 21.3477 293.941 21.6758C293.438 21.9922 292.869 22.2266 292.236 22.3789C292.998 22.5781 293.689 22.8711 294.311 23.2578C294.943 23.6445 295.477 24.1133 295.91 24.6641C296.355 25.2148 296.695 25.8359 296.93 26.5273C297.176 27.2188 297.299 27.957 297.299 28.7422ZM288.369 18.7227C288.369 18.3828 288.299 18.0957 288.158 17.8613C288.018 17.6152 287.842 17.416 287.631 17.2637C287.432 17.1113 287.209 17 286.963 16.9297C286.729 16.8594 286.518 16.8242 286.33 16.8242C286.096 16.8242 285.867 16.8594 285.645 16.9297C285.422 17 285.205 17.082 284.994 17.1758L284.889 21.0781C285.158 21.0781 285.492 21.0547 285.891 21.0078C286.289 20.9609 286.67 20.8613 287.033 20.709C287.408 20.5449 287.725 20.3105 287.982 20.0059C288.24 19.6895 288.369 19.2617 288.369 18.7227ZM285.873 24.4531C285.533 24.4531 285.205 24.4883 284.889 24.5586L284.818 28.5664C284.994 28.6016 285.164 28.6367 285.328 28.6719C285.504 28.6953 285.674 28.707 285.838 28.707C286.084 28.707 286.354 28.6836 286.646 28.6367C286.939 28.5781 287.215 28.4727 287.473 28.3203C287.73 28.1562 287.941 27.9395 288.105 27.6699C288.281 27.4004 288.369 27.043 288.369 26.5977C288.369 26.1523 288.281 25.7891 288.105 25.5078C287.941 25.2266 287.736 25.0098 287.49 24.8574C287.244 24.6934 286.975 24.5879 286.682 24.541C286.389 24.4824 286.119 24.4531 285.873 24.4531Z" fill="#FEFEFE"/>
<path d="M252.833 6.39551L249.075 10.1533L250.99 12.0684C251.67 12.7477 251.67 13.8461 250.99 14.5182L249.733 15.7756C250.586 17.6617 251.062 19.7574 251.062 21.9615C251.062 30.2648 244.335 36.9928 236.031 36.9928C227.728 36.9928 221 30.2721 221 21.9688C221 13.6654 227.728 6.9375 236.031 6.9375C238.235 6.9375 240.331 7.41445 242.217 8.26719L243.475 7.00977C244.154 6.33047 245.252 6.33047 245.924 7.00977L247.839 8.9248L251.597 5.16699L252.833 6.39551ZM257.133 4.33594H255.398C254.921 4.33594 254.531 4.72617 254.531 5.20312C254.531 5.68008 254.921 6.07031 255.398 6.07031H257.133C257.61 6.07031 258 5.68008 258 5.20312C258 4.72617 257.61 4.33594 257.133 4.33594ZM252.797 0C252.32 0 251.93 0.390234 251.93 0.867188V2.60156C251.93 3.07852 252.32 3.46875 252.797 3.46875C253.274 3.46875 253.664 3.07852 253.664 2.60156V0.867188C253.664 0.390234 253.274 0 252.797 0ZM255.247 3.97461L256.475 2.74609C256.815 2.40645 256.815 1.85723 256.475 1.51758C256.136 1.17793 255.586 1.17793 255.247 1.51758L254.018 2.74609C253.679 3.08574 253.679 3.63496 254.018 3.97461C254.365 4.31426 254.914 4.31426 255.247 3.97461ZM250.347 3.97461C250.687 4.31426 251.236 4.31426 251.576 3.97461C251.915 3.63496 251.915 3.08574 251.576 2.74609L250.347 1.51758C250.007 1.17793 249.458 1.17793 249.119 1.51758C248.779 1.85723 248.779 2.40645 249.119 2.74609L250.347 3.97461ZM255.247 6.43164C254.907 6.09199 254.358 6.09199 254.018 6.43164C253.679 6.77129 253.679 7.32051 254.018 7.66016L255.247 8.88867C255.586 9.22832 256.136 9.22832 256.475 8.88867C256.815 8.54902 256.815 7.9998 256.475 7.66016L255.247 6.43164ZM229.094 19.6562C229.094 17.1053 231.168 15.0312 233.719 15.0312C234.355 15.0312 234.875 14.5109 234.875 13.875C234.875 13.2391 234.355 12.7188 233.719 12.7188C229.896 12.7188 226.781 15.8334 226.781 19.6562C226.781 20.2922 227.302 20.8125 227.938 20.8125C228.573 20.8125 229.094 20.2922 229.094 19.6562Z" fill="#FF8C42"/>
</svg>
