<svg width="298" height="46" viewBox="0 0 298 46" fill="none" xmlns="http://www.w3.org/2000/svg">
<path d="M23.1855 9.82812L14.7129 21.5352L21.8496 33.9805L13.6934 35.4219L8.34961 27.8281L8.06836 35.7734L0.755859 36.0547L1.31836 9.125L9.50977 9.58203L8.87695 17.5273L14.3262 9.125L23.1855 9.82812ZM46.916 9.79297L45.6504 33.6289L36.4395 34.4727L31.5176 21.7109L30.7441 34.7188H22.834L23.4668 9.79297L32.2559 9.37109L38.3379 22.0273L38.6191 10.0742L46.916 9.79297ZM69.8379 22.5898C69.8379 23.6562 69.7148 24.6875 69.4688 25.6836C69.2227 26.668 68.8652 27.5938 68.3965 28.4609C67.9395 29.3281 67.377 30.125 66.709 30.8516C66.0527 31.5664 65.3086 32.1816 64.4766 32.6973C63.6562 33.2129 62.7598 33.6172 61.7871 33.9102C60.8145 34.1914 59.7832 34.332 58.6934 34.332C57.6387 34.332 56.6309 34.1973 55.6699 33.9277C54.7207 33.6582 53.8301 33.2832 52.998 32.8027C52.166 32.3105 51.4102 31.7246 50.7305 31.0449C50.0625 30.3535 49.4883 29.5918 49.0078 28.7598C48.5391 27.916 48.1699 27.0137 47.9004 26.0527C47.6426 25.0918 47.5137 24.0898 47.5137 23.0469C47.5137 22.0273 47.6367 21.0312 47.8828 20.0586C48.1289 19.0742 48.4805 18.1484 48.9375 17.2812C49.4062 16.4141 49.9688 15.6172 50.625 14.8906C51.2812 14.1641 52.0137 13.5371 52.8223 13.0098C53.6426 12.4824 54.5273 12.0723 55.4766 11.7793C56.4258 11.4863 57.4277 11.3398 58.4824 11.3398C60.1816 11.3398 61.7285 11.6035 63.123 12.1309C64.5293 12.6582 65.7246 13.4141 66.709 14.3984C67.7051 15.3711 68.4727 16.5547 69.0117 17.9492C69.5625 19.332 69.8379 20.8789 69.8379 22.5898ZM62.0332 23.0469C62.0332 22.543 61.957 22.0566 61.8047 21.5879C61.6641 21.1074 61.4531 20.6855 61.1719 20.3223C60.8906 19.9473 60.5391 19.6484 60.1172 19.4258C59.707 19.1914 59.2324 19.0742 58.6934 19.0742C58.1426 19.0742 57.6504 19.1738 57.2168 19.373C56.7832 19.5723 56.4082 19.8477 56.0918 20.1992C55.7871 20.5391 55.5527 20.9434 55.3887 21.4121C55.2246 21.8691 55.1426 22.3555 55.1426 22.8711C55.1426 23.3633 55.2129 23.8555 55.3535 24.3477C55.4941 24.8398 55.7051 25.2852 55.9863 25.6836C56.2676 26.082 56.6133 26.4043 57.0234 26.6504C57.4453 26.8965 57.9316 27.0195 58.4824 27.0195C59.0332 27.0195 59.5254 26.9141 59.959 26.7031C60.4043 26.4805 60.7793 26.1875 61.084 25.8242C61.3887 25.4492 61.623 25.0215 61.7871 24.541C61.9512 24.0605 62.0332 23.5625 62.0332 23.0469ZM102.146 10.6016L98.0332 34.9648L88.0488 35.1758L85.9043 22.5547L83.7598 34.2617L73.7754 34.6133L69.627 10.6016L78.3457 9.82812L80.1035 24.418L82.459 9.82812H89.3145L92.0566 24.5938L93.4629 9.82812L102.146 10.6016ZM118.371 25.6836L117.633 33.4883L102.832 34.6484L103.395 9.54688H112.535L111.234 25.6836H118.371ZM135.844 9.65234C135.773 10.7539 135.709 11.8438 135.65 12.9219C135.592 14 135.516 15.0898 135.422 16.1914L127.969 16.5781L127.793 18.793H133.031L132.645 24.2422L127.371 24.418L127.195 26.9844H131.555H134.648C134.578 28.2734 134.502 29.5566 134.42 30.834C134.35 32.0996 134.285 33.3711 134.227 34.6484L119.074 35L119.637 9.65234H135.844ZM156.375 21.043C156.375 22.6836 156.164 24.166 155.742 25.4902C155.32 26.8027 154.729 27.9746 153.967 29.0059C153.217 30.0254 152.32 30.9043 151.277 31.6426C150.234 32.3809 149.092 32.9902 147.85 33.4707C146.607 33.9395 145.283 34.291 143.877 34.5254C142.482 34.748 141.047 34.8594 139.57 34.8594C139.02 34.8594 138.48 34.8477 137.953 34.8242C137.426 34.7891 136.887 34.7422 136.336 34.6836L136.828 11.0938C138.117 10.6836 139.441 10.3965 140.801 10.2324C142.172 10.0566 143.531 9.96875 144.879 9.96875C146.555 9.96875 148.096 10.2207 149.502 10.7246C150.908 11.2285 152.121 11.9551 153.141 12.9043C154.16 13.8535 154.951 15.0137 155.514 16.3848C156.088 17.7559 156.375 19.3086 156.375 21.043ZM149.168 22.168C149.18 21.5352 149.109 20.9258 148.957 20.3398C148.816 19.7539 148.576 19.2383 148.236 18.793C147.908 18.3359 147.486 17.9727 146.971 17.7031C146.455 17.4219 145.84 17.2695 145.125 17.2461L144.422 28.1445C145.125 28.0391 145.764 27.8105 146.338 27.459C146.912 27.0957 147.404 26.6562 147.814 26.1406C148.236 25.6133 148.559 25.0332 148.781 24.4004C149.016 23.7559 149.145 23.0938 149.168 22.4141V22.168ZM178.664 31.4141C178.113 32.1055 177.434 32.709 176.625 33.2246C175.816 33.7402 174.949 34.168 174.023 34.5078C173.098 34.8477 172.148 35.0996 171.176 35.2637C170.203 35.4395 169.277 35.5273 168.398 35.5273C166.699 35.5273 165.135 35.2227 163.705 34.6133C162.275 34.0039 161.039 33.166 159.996 32.0996C158.965 31.0215 158.156 29.7559 157.57 28.3027C156.984 26.8496 156.691 25.2852 156.691 23.6094C156.691 22.332 156.838 21.084 157.131 19.8652C157.424 18.6348 157.84 17.4805 158.379 16.4023C158.93 15.3125 159.598 14.3164 160.383 13.4141C161.168 12.5 162.059 11.7148 163.055 11.0586C164.051 10.4023 165.141 9.89258 166.324 9.5293C167.508 9.16602 168.773 8.98438 170.121 8.98438C170.625 8.98438 171.164 9.00781 171.738 9.05469C172.312 9.08984 172.881 9.16016 173.443 9.26562C174.018 9.35937 174.574 9.49414 175.113 9.66992C175.652 9.8457 176.145 10.0625 176.59 10.3203L176.098 17.0352C175.441 16.7891 174.762 16.625 174.059 16.543C173.367 16.4492 172.688 16.4023 172.02 16.4023C171.082 16.4023 170.203 16.5488 169.383 16.8418C168.574 17.123 167.865 17.5332 167.256 18.0723C166.658 18.6113 166.184 19.2676 165.832 20.041C165.48 20.8145 165.305 21.6875 165.305 22.6602C165.305 23.2695 165.387 23.8613 165.551 24.4355C165.715 24.998 165.961 25.502 166.289 25.9473C166.629 26.3809 167.045 26.7324 167.537 27.002C168.041 27.2715 168.621 27.4062 169.277 27.4062C169.723 27.4062 170.18 27.3477 170.648 27.2305C171.129 27.1133 171.539 26.9141 171.879 26.6328L171.949 25.2617L167.73 25.1914L167.941 19.918C169.688 19.8594 171.434 19.8125 173.18 19.7773C174.926 19.7305 176.684 19.6719 178.453 19.6016L178.664 31.4141ZM196.664 9.65234C196.594 10.7539 196.529 11.8438 196.471 12.9219C196.412 14 196.336 15.0898 196.242 16.1914L188.789 16.5781L188.613 18.793H193.852L193.465 24.2422L188.191 24.418L188.016 26.9844H192.375H195.469C195.398 28.2734 195.322 29.5566 195.24 30.834C195.17 32.0996 195.105 33.3711 195.047 34.6484L179.895 35L180.457 9.65234H196.664ZM224.771 28.7422C224.771 29.7148 224.59 30.5527 224.227 31.2559C223.875 31.959 223.4 32.5566 222.803 33.0488C222.205 33.541 221.514 33.9453 220.729 34.2617C219.955 34.5664 219.146 34.8066 218.303 34.9824C217.459 35.1582 216.609 35.2754 215.754 35.334C214.91 35.3926 214.119 35.4219 213.381 35.4219C212.654 35.4219 211.898 35.3926 211.113 35.334C210.34 35.2871 209.566 35.1992 208.793 35.0703C208.02 34.9414 207.258 34.7715 206.508 34.5605C205.758 34.3379 205.049 34.0625 204.381 33.7344L204.346 11.0938C205.002 10.8242 205.699 10.584 206.438 10.373C207.176 10.1504 207.926 9.96875 208.688 9.82812C209.461 9.67578 210.229 9.56445 210.99 9.49414C211.752 9.41211 212.49 9.37109 213.205 9.37109C214.037 9.37109 214.875 9.42383 215.719 9.5293C216.574 9.63477 217.395 9.81055 218.18 10.0566C218.965 10.3027 219.697 10.625 220.377 11.0234C221.057 11.4102 221.648 11.8906 222.152 12.4648C222.668 13.0391 223.066 13.707 223.348 14.4688C223.641 15.2305 223.787 16.1094 223.787 17.1055C223.787 17.7617 223.693 18.377 223.506 18.9512C223.318 19.5254 223.049 20.041 222.697 20.498C222.346 20.9551 221.918 21.3477 221.414 21.6758C220.91 21.9922 220.342 22.2266 219.709 22.3789C220.471 22.5781 221.162 22.8711 221.783 23.2578C222.416 23.6445 222.949 24.1133 223.383 24.6641C223.828 25.2148 224.168 25.8359 224.402 26.5273C224.648 27.2188 224.771 27.957 224.771 28.7422ZM215.842 18.7227C215.842 18.3828 215.771 18.0957 215.631 17.8613C215.49 17.6152 215.314 17.416 215.104 17.2637C214.904 17.1113 214.682 17 214.436 16.9297C214.201 16.8594 213.99 16.8242 213.803 16.8242C213.568 16.8242 213.34 16.8594 213.117 16.9297C212.895 17 212.678 17.082 212.467 17.1758L212.361 21.0781C212.631 21.0781 212.965 21.0547 213.363 21.0078C213.762 20.9609 214.143 20.8613 214.506 20.709C214.881 20.5449 215.197 20.3105 215.455 20.0059C215.713 19.6895 215.842 19.2617 215.842 18.7227ZM213.346 24.4531C213.006 24.4531 212.678 24.4883 212.361 24.5586L212.291 28.5664C212.467 28.6016 212.637 28.6367 212.801 28.6719C212.977 28.6953 213.146 28.707 213.311 28.707C213.557 28.707 213.826 28.6836 214.119 28.6367C214.412 28.5781 214.688 28.4727 214.945 28.3203C215.203 28.1562 215.414 27.9395 215.578 27.6699C215.754 27.4004 215.842 27.043 215.842 26.5977C215.842 26.1523 215.754 25.7891 215.578 25.5078C215.414 25.2266 215.209 25.0098 214.963 24.8574C214.717 24.6934 214.447 24.5879 214.154 24.541C213.861 24.4824 213.592 24.4531 213.346 24.4531ZM247.096 22.5898C247.096 23.6562 246.973 24.6875 246.727 25.6836C246.48 26.668 246.123 27.5938 245.654 28.4609C245.197 29.3281 244.635 30.125 243.967 30.8516C243.311 31.5664 242.566 32.1816 241.734 32.6973C240.914 33.2129 240.018 33.6172 239.045 33.9102C238.072 34.1914 237.041 34.332 235.951 34.332C234.896 34.332 233.889 34.1973 232.928 33.9277C231.979 33.6582 231.088 33.2832 230.256 32.8027C229.424 32.3105 228.668 31.7246 227.988 31.0449C227.32 30.3535 226.746 29.5918 226.266 28.7598C225.797 27.916 225.428 27.0137 225.158 26.0527C224.9 25.0918 224.771 24.0898 224.771 23.0469C224.771 22.0273 224.895 21.0312 225.141 20.0586C225.387 19.0742 225.738 18.1484 226.195 17.2812C226.664 16.4141 227.227 15.6172 227.883 14.8906C228.539 14.1641 229.271 13.5371 230.08 13.0098C230.9 12.4824 231.785 12.0723 232.734 11.7793C233.684 11.4863 234.686 11.3398 235.74 11.3398C237.439 11.3398 238.986 11.6035 240.381 12.1309C241.787 12.6582 242.982 13.4141 243.967 14.3984C244.963 15.3711 245.73 16.5547 246.27 17.9492C246.82 19.332 247.096 20.8789 247.096 22.5898ZM239.291 23.0469C239.291 22.543 239.215 22.0566 239.062 21.5879C238.922 21.1074 238.711 20.6855 238.43 20.3223C238.148 19.9473 237.797 19.6484 237.375 19.4258C236.965 19.1914 236.49 19.0742 235.951 19.0742C235.4 19.0742 234.908 19.1738 234.475 19.373C234.041 19.5723 233.666 19.8477 233.35 20.1992C233.045 20.5391 232.811 20.9434 232.646 21.4121C232.482 21.8691 232.4 22.3555 232.4 22.8711C232.4 23.3633 232.471 23.8555 232.611 24.3477C232.752 24.8398 232.963 25.2852 233.244 25.6836C233.525 26.082 233.871 26.4043 234.281 26.6504C234.703 26.8965 235.189 27.0195 235.74 27.0195C236.291 27.0195 236.783 26.9141 237.217 26.7031C237.662 26.4805 238.037 26.1875 238.342 25.8242C238.646 25.4492 238.881 25.0215 239.045 24.541C239.209 24.0605 239.291 23.5625 239.291 23.0469ZM275.502 9.37109L273.885 35.1758L265.869 35.5273L265.939 21.9219L262.318 32.8906H259.225L256.447 23.082L256.412 34.4727L248.291 34.7188L248.643 10.4258L257.678 10.0742L261.264 21.7109L266.045 9.37109H275.502ZM297.264 28.7422C297.264 29.7148 297.082 30.5527 296.719 31.2559C296.367 31.959 295.893 32.5566 295.295 33.0488C294.697 33.541 294.006 33.9453 293.221 34.2617C292.447 34.5664 291.639 34.8066 290.795 34.9824C289.951 35.1582 289.102 35.2754 288.246 35.334C287.402 35.3926 286.611 35.4219 285.873 35.4219C285.146 35.4219 284.391 35.3926 283.605 35.334C282.832 35.2871 282.059 35.1992 281.285 35.0703C280.512 34.9414 279.75 34.7715 279 34.5605C278.25 34.3379 277.541 34.0625 276.873 33.7344L276.838 11.0938C277.494 10.8242 278.191 10.584 278.93 10.373C279.668 10.1504 280.418 9.96875 281.18 9.82812C281.953 9.67578 282.721 9.56445 283.482 9.49414C284.244 9.41211 284.982 9.37109 285.697 9.37109C286.529 9.37109 287.367 9.42383 288.211 9.5293C289.066 9.63477 289.887 9.81055 290.672 10.0566C291.457 10.3027 292.189 10.625 292.869 11.0234C293.549 11.4102 294.141 11.8906 294.645 12.4648C295.16 13.0391 295.559 13.707 295.84 14.4688C296.133 15.2305 296.279 16.1094 296.279 17.1055C296.279 17.7617 296.186 18.377 295.998 18.9512C295.811 19.5254 295.541 20.041 295.189 20.498C294.838 20.9551 294.41 21.3477 293.906 21.6758C293.402 21.9922 292.834 22.2266 292.201 22.3789C292.963 22.5781 293.654 22.8711 294.275 23.2578C294.908 23.6445 295.441 24.1133 295.875 24.6641C296.32 25.2148 296.66 25.8359 296.895 26.5273C297.141 27.2188 297.264 27.957 297.264 28.7422ZM288.334 18.7227C288.334 18.3828 288.264 18.0957 288.123 17.8613C287.982 17.6152 287.807 17.416 287.596 17.2637C287.396 17.1113 287.174 17 286.928 16.9297C286.693 16.8594 286.482 16.8242 286.295 16.8242C286.061 16.8242 285.832 16.8594 285.609 16.9297C285.387 17 285.17 17.082 284.959 17.1758L284.854 21.0781C285.123 21.0781 285.457 21.0547 285.855 21.0078C286.254 20.9609 286.635 20.8613 286.998 20.709C287.373 20.5449 287.689 20.3105 287.947 20.0059C288.205 19.6895 288.334 19.2617 288.334 18.7227ZM285.838 24.4531C285.498 24.4531 285.17 24.4883 284.854 24.5586L284.783 28.5664C284.959 28.6016 285.129 28.6367 285.293 28.6719C285.469 28.6953 285.639 28.707 285.803 28.707C286.049 28.707 286.318 28.6836 286.611 28.6367C286.904 28.5781 287.18 28.4727 287.438 28.3203C287.695 28.1562 287.906 27.9395 288.07 27.6699C288.246 27.4004 288.334 27.043 288.334 26.5977C288.334 26.1523 288.246 25.7891 288.07 25.5078C287.906 25.2266 287.701 25.0098 287.455 24.8574C287.209 24.6934 286.939 24.5879 286.646 24.541C286.354 24.4824 286.084 24.4531 285.838 24.4531Z" fill="#FEFEFE"/>
<path d="M252.833 6.39551L249.075 10.1533L250.99 12.0684C251.67 12.7477 251.67 13.8461 250.99 14.5182L249.733 15.7756C250.586 17.6617 251.062 19.7574 251.062 21.9615C251.062 30.2648 244.335 36.9928 236.031 36.9928C227.728 36.9928 221 30.2721 221 21.9688C221 13.6654 227.728 6.9375 236.031 6.9375C238.235 6.9375 240.331 7.41445 242.217 8.26719L243.475 7.00977C244.154 6.33047 245.252 6.33047 245.924 7.00977L247.839 8.9248L251.597 5.16699L252.833 6.39551ZM257.133 4.33594H255.398C254.921 4.33594 254.531 4.72617 254.531 5.20312C254.531 5.68008 254.921 6.07031 255.398 6.07031H257.133C257.61 6.07031 258 5.68008 258 5.20312C258 4.72617 257.61 4.33594 257.133 4.33594ZM252.797 0C252.32 0 251.93 0.390234 251.93 0.867188V2.60156C251.93 3.07852 252.32 3.46875 252.797 3.46875C253.274 3.46875 253.664 3.07852 253.664 2.60156V0.867188C253.664 0.390234 253.274 0 252.797 0ZM255.247 3.97461L256.475 2.74609C256.815 2.40645 256.815 1.85723 256.475 1.51758C256.136 1.17793 255.586 1.17793 255.247 1.51758L254.018 2.74609C253.679 3.08574 253.679 3.63496 254.018 3.97461C254.365 4.31426 254.914 4.31426 255.247 3.97461ZM250.347 3.97461C250.687 4.31426 251.236 4.31426 251.576 3.97461C251.915 3.63496 251.915 3.08574 251.576 2.74609L250.347 1.51758C250.007 1.17793 249.458 1.17793 249.119 1.51758C248.779 1.85723 248.779 2.40645 249.119 2.74609L250.347 3.97461ZM255.247 6.43164C254.907 6.09199 254.358 6.09199 254.018 6.43164C253.679 6.77129 253.679 7.32051 254.018 7.66016L255.247 8.88867C255.586 9.22832 256.136 9.22832 256.475 8.88867C256.815 8.54902 256.815 7.9998 256.475 7.66016L255.247 6.43164ZM229.094 19.6562C229.094 17.1053 231.168 15.0312 233.719 15.0312C234.355 15.0312 234.875 14.5109 234.875 13.875C234.875 13.2391 234.355 12.7188 233.719 12.7188C229.896 12.7188 226.781 15.8334 226.781 19.6562C226.781 20.2922 227.302 20.8125 227.938 20.8125C228.573 20.8125 229.094 20.2922 229.094 19.6562Z" fill="#FF8C42"/>
</svg>
