<svg width="252" height="118" viewBox="0 0 252 118" fill="none" xmlns="http://www.w3.org/2000/svg">
<path d="M56.9531 73.3125C56.9531 75.9062 56.4688 78.1406 55.5 80.0156C54.5625 81.8906 53.2969 83.4844 51.7031 84.7969C50.1094 86.1094 48.2656 87.1875 46.1719 88.0312C44.1094 88.8438 41.9531 89.4844 39.7031 89.9531C37.4531 90.4219 35.1875 90.7344 32.9062 90.8906C30.6562 91.0469 28.5469 91.125 26.5781 91.125C24.6406 91.125 22.625 91.0469 20.5312 90.8906C18.4688 90.7656 16.4062 90.5312 14.3438 90.1875C12.2812 89.8438 10.25 89.3906 8.25 88.8281C6.25 88.2344 4.35938 87.5 2.57812 86.625L2.48438 26.25C4.23438 25.5313 6.09375 24.8906 8.0625 24.3281C10.0312 23.7344 12.0312 23.25 14.0625 22.875C16.125 22.4687 18.1719 22.1719 20.2031 21.9844C22.2344 21.7656 24.2031 21.6562 26.1094 21.6562C28.3281 21.6562 30.5625 21.7969 32.8125 22.0781C35.0938 22.3594 37.2812 22.8281 39.375 23.4844C41.4688 24.1406 43.4219 25 45.2344 26.0625C47.0469 27.0938 48.625 28.375 49.9688 29.9062C51.3438 31.4375 52.4062 33.2188 53.1562 35.25C53.9375 37.2812 54.3281 39.625 54.3281 42.2812C54.3281 44.0312 54.0781 45.6719 53.5781 47.2031C53.0781 48.7344 52.3594 50.1094 51.4219 51.3281C50.4844 52.5469 49.3438 53.5938 48 54.4688C46.6562 55.3125 45.1406 55.9375 43.4531 56.3438C45.4844 56.875 47.3281 57.6562 48.9844 58.6875C50.6719 59.7188 52.0938 60.9688 53.25 62.4375C54.4375 63.9062 55.3438 65.5625 55.9688 67.4062C56.625 69.25 56.9531 71.2188 56.9531 73.3125ZM33.1406 46.5938C33.1406 45.6875 32.9531 44.9219 32.5781 44.2969C32.2031 43.6406 31.7344 43.1094 31.1719 42.7031C30.6406 42.2969 30.0469 42 29.3906 41.8125C28.7656 41.625 28.2031 41.5312 27.7031 41.5312C27.0781 41.5312 26.4688 41.625 25.875 41.8125C25.2812 42 24.7031 42.2188 24.1406 42.4688L23.8594 52.875C24.5781 52.875 25.4688 52.8125 26.5312 52.6875C27.5938 52.5625 28.6094 52.2969 29.5781 51.8906C30.5781 51.4531 31.4219 50.8281 32.1094 50.0156C32.7969 49.1719 33.1406 48.0312 33.1406 46.5938ZM26.4844 61.875C25.5781 61.875 24.7031 61.9688 23.8594 62.1562L23.6719 72.8438C24.1406 72.9375 24.5938 73.0312 25.0312 73.125C25.5 73.1875 25.9531 73.2188 26.3906 73.2188C27.0469 73.2188 27.7656 73.1562 28.5469 73.0312C29.3281 72.875 30.0625 72.5938 30.75 72.1875C31.4375 71.75 32 71.1719 32.4375 70.4531C32.9062 69.7344 33.1406 68.7812 33.1406 67.5938C33.1406 66.4062 32.9062 65.4375 32.4375 64.6875C32 63.9375 31.4531 63.3594 30.7969 62.9531C30.1406 62.5156 29.4219 62.2344 28.6406 62.1094C27.8594 61.9531 27.1406 61.875 26.4844 61.875ZM193.172 21.6562L188.859 90.4688L167.484 91.4062L167.672 55.125L158.016 84.375H149.766L142.359 58.2188L142.266 88.5938L120.609 89.25L121.547 24.4688L145.641 23.5312L155.203 54.5625L167.953 21.6562H193.172ZM251.203 73.3125C251.203 75.9062 250.719 78.1406 249.75 80.0156C248.812 81.8906 247.547 83.4844 245.953 84.7969C244.359 86.1094 242.516 87.1875 240.422 88.0312C238.359 88.8438 236.203 89.4844 233.953 89.9531C231.703 90.4219 229.438 90.7344 227.156 90.8906C224.906 91.0469 222.797 91.125 220.828 91.125C218.891 91.125 216.875 91.0469 214.781 90.8906C212.719 90.7656 210.656 90.5312 208.594 90.1875C206.531 89.8438 204.5 89.3906 202.5 88.8281C200.5 88.2344 198.609 87.5 196.828 86.625L196.734 26.25C198.484 25.5313 200.344 24.8906 202.312 24.3281C204.281 23.7344 206.281 23.25 208.312 22.875C210.375 22.4687 212.422 22.1719 214.453 21.9844C216.484 21.7656 218.453 21.6562 220.359 21.6562C222.578 21.6562 224.812 21.7969 227.062 22.0781C229.344 22.3594 231.531 22.8281 233.625 23.4844C235.719 24.1406 237.672 25 239.484 26.0625C241.297 27.0938 242.875 28.375 244.219 29.9062C245.594 31.4375 246.656 33.2188 247.406 35.25C248.188 37.2812 248.578 39.625 248.578 42.2812C248.578 44.0312 248.328 45.6719 247.828 47.2031C247.328 48.7344 246.609 50.1094 245.672 51.3281C244.734 52.5469 243.594 53.5938 242.25 54.4688C240.906 55.3125 239.391 55.9375 237.703 56.3438C239.734 56.875 241.578 57.6562 243.234 58.6875C244.922 59.7188 246.344 60.9688 247.5 62.4375C248.688 63.9062 249.594 65.5625 250.219 67.4062C250.875 69.25 251.203 71.2188 251.203 73.3125ZM227.391 46.5938C227.391 45.6875 227.203 44.9219 226.828 44.2969C226.453 43.6406 225.984 43.1094 225.422 42.7031C224.891 42.2969 224.297 42 223.641 41.8125C223.016 41.625 222.453 41.5312 221.953 41.5312C221.328 41.5312 220.719 41.625 220.125 41.8125C219.531 42 218.953 42.2188 218.391 42.4688L218.109 52.875C218.828 52.875 219.719 52.8125 220.781 52.6875C221.844 52.5625 222.859 52.2969 223.828 51.8906C224.828 51.4531 225.672 50.8281 226.359 50.0156C227.047 49.1719 227.391 48.0312 227.391 46.5938ZM220.734 61.875C219.828 61.875 218.953 61.9688 218.109 62.1562L217.922 72.8438C218.391 72.9375 218.844 73.0312 219.281 73.125C219.75 73.1875 220.203 73.2188 220.641 73.2188C221.297 73.2188 222.016 73.1562 222.797 73.0312C223.578 72.875 224.312 72.5938 225 72.1875C225.688 71.75 226.25 71.1719 226.688 70.4531C227.156 69.7344 227.391 68.7812 227.391 67.5938C227.391 66.4062 227.156 65.4375 226.688 64.6875C226.25 63.9375 225.703 63.3594 225.047 62.9531C224.391 62.5156 223.672 62.2344 222.891 62.1094C222.109 61.9531 221.391 61.875 220.734 61.875Z" fill="black"/>
<path d="M117.422 56.9062C117.422 59.75 117.094 62.5 116.438 65.1562C115.781 67.7812 114.828 70.25 113.578 72.5625C112.359 74.875 110.859 77 109.078 78.9375C107.328 80.8438 105.344 82.4844 103.125 83.8594C100.938 85.2344 98.5469 86.3125 95.9531 87.0938C93.3594 87.8438 90.6094 88.2188 87.7031 88.2188C84.8906 88.2188 82.2031 87.8594 79.6406 87.1406C77.1094 86.4219 74.7344 85.4219 72.5156 84.1406C70.2969 82.8281 68.2812 81.2656 66.4688 79.4531C64.6875 77.6094 63.1562 75.5781 61.875 73.3594C60.625 71.1094 59.6406 68.7031 58.9219 66.1406C58.2344 63.5781 57.8906 60.9062 57.8906 58.125C57.8906 55.4062 58.2188 52.75 58.875 50.1562C59.5312 47.5312 60.4688 45.0625 61.6875 42.75C62.9375 40.4375 64.4375 38.3125 66.1875 36.375C67.9375 34.4375 69.8906 32.7656 72.0469 31.3594C74.2344 29.9531 76.5938 28.8594 79.125 28.0781C81.6562 27.2969 84.3281 26.9062 87.1406 26.9062C91.6719 26.9062 95.7969 27.6094 99.5156 29.0156C103.266 30.4219 106.453 32.4375 109.078 35.0625C111.734 37.6562 113.781 40.8125 115.219 44.5312C116.688 48.2188 117.422 52.3438 117.422 56.9062ZM96.6094 58.125C96.6094 56.7812 96.4062 55.4844 96 54.2344C95.625 52.9531 95.0625 51.8281 94.3125 50.8594C93.5625 49.8594 92.625 49.0625 91.5 48.4688C90.4062 47.8438 89.1406 47.5312 87.7031 47.5312C86.2344 47.5312 84.9219 47.7969 83.7656 48.3281C82.6094 48.8594 81.6094 49.5938 80.7656 50.5312C79.9531 51.4375 79.3281 52.5156 78.8906 53.7656C78.4531 54.9844 78.2344 56.2812 78.2344 57.6562C78.2344 58.9688 78.4219 60.2812 78.7969 61.5938C79.1719 62.9062 79.7344 64.0938 80.4844 65.1562C81.2344 66.2188 82.1562 67.0781 83.25 67.7344C84.375 68.3906 85.6719 68.7188 87.1406 68.7188C88.6094 68.7188 89.9219 68.4375 91.0781 67.875C92.2656 67.2812 93.2656 66.5 94.0781 65.5312C94.8906 64.5312 95.5156 63.3906 95.9531 62.1094C96.3906 60.8281 96.6094 59.5 96.6094 58.125Z" fill="white"/>
<path d="M126.873 16.248L117.326 25.7949L122.191 30.6602C123.917 32.3859 123.917 35.1766 122.191 36.884L118.997 40.0785C121.163 44.8703 122.375 50.1945 122.375 55.7941C122.375 76.8891 105.282 93.9816 84.1875 93.9816C63.0926 93.9816 46 76.9074 46 55.8125C46 34.7176 63.0926 17.625 84.1875 17.625C89.7871 17.625 95.1113 18.8367 99.9031 21.0031L103.098 17.8086C104.823 16.0828 107.614 16.0828 109.321 17.8086L114.187 22.6738L123.734 13.127L126.873 16.248ZM137.797 11.0156H133.391C132.179 11.0156 131.188 12.007 131.188 13.2188C131.188 14.4305 132.179 15.4219 133.391 15.4219H137.797C139.009 15.4219 140 14.4305 140 13.2188C140 12.007 139.009 11.0156 137.797 11.0156ZM126.781 0C125.57 0 124.578 0.991406 124.578 2.20312V6.60938C124.578 7.82109 125.57 8.8125 126.781 8.8125C127.993 8.8125 128.984 7.82109 128.984 6.60938V2.20312C128.984 0.991406 127.993 0 126.781 0ZM133.005 10.0977L136.126 6.97656C136.989 6.11367 136.989 4.71836 136.126 3.85547C135.263 2.99258 133.868 2.99258 133.005 3.85547L129.884 6.97656C129.021 7.83945 129.021 9.23477 129.884 10.0977C130.765 10.9605 132.161 10.9605 133.005 10.0977ZM120.557 10.0977C121.42 10.9605 122.816 10.9605 123.679 10.0977C124.541 9.23477 124.541 7.83945 123.679 6.97656L120.557 3.85547C119.695 2.99258 118.299 2.99258 117.436 3.85547C116.573 4.71836 116.573 6.11367 117.436 6.97656L120.557 10.0977ZM133.005 16.3398C132.142 15.477 130.747 15.477 129.884 16.3398C129.021 17.2027 129.021 18.598 129.884 19.4609L133.005 22.582C133.868 23.4449 135.263 23.4449 136.126 22.582C136.989 21.7191 136.989 20.3238 136.126 19.4609L133.005 16.3398ZM66.5625 49.9375C66.5625 43.4566 71.8316 38.1875 78.3125 38.1875C79.9281 38.1875 81.25 36.8656 81.25 35.25C81.25 33.6344 79.9281 32.3125 78.3125 32.3125C68.6004 32.3125 60.6875 40.2254 60.6875 49.9375C60.6875 51.5531 62.0094 52.875 63.625 52.875C65.2406 52.875 66.5625 51.5531 66.5625 49.9375Z" fill="#FF8C42"/>
<path d="M16.1317 3.36554L11.549 9.4517L15.4091 15.9217L10.9976 16.671L8.10727 12.7232L7.95515 16.8538L4 17L4.30424 3L8.73477 3.2376L8.3925 7.36815L11.3399 3L16.1317 3.36554Z" fill="black"/>
<path d="M28.9669 3.34726L28.2824 15.7389L23.3004 16.1775L20.6383 9.54308L20.2199 16.3055H15.9415L16.2838 3.34726L21.0376 3.12794L24.3272 9.70757L24.4793 3.49347L28.9669 3.34726Z" fill="black"/>
<path d="M41.3648 10C41.3648 10.5544 41.2982 11.0905 41.1651 11.6084C41.032 12.1201 40.8387 12.6014 40.5852 13.0522C40.338 13.503 40.0337 13.9173 39.6724 14.295C39.3175 14.6667 38.915 14.9865 38.465 15.2546C38.0213 15.5226 37.5364 15.7328 37.0103 15.8851C36.4842 16.0313 35.9265 16.1044 35.337 16.1044C34.7665 16.1044 34.2214 16.0344 33.7017 15.8943C33.1883 15.7541 32.7066 15.5592 32.2565 15.3094C31.8065 15.0535 31.3977 14.7489 31.03 14.3956C30.6688 14.0361 30.3582 13.6401 30.0983 13.2076C29.8448 12.7689 29.6451 12.2998 29.4993 11.8003C29.3599 11.3007 29.2902 10.7798 29.2902 10.2376C29.2902 9.70757 29.3567 9.18973 29.4898 8.68407C29.6229 8.17232 29.8131 7.69104 30.0603 7.24021C30.3138 6.78938 30.6181 6.37511 30.973 5.99739C31.328 5.61967 31.7241 5.29373 32.1615 5.01958C32.6051 4.74543 33.0837 4.5322 33.5971 4.3799C34.1105 4.22759 34.6524 4.15144 35.2229 4.15144C36.142 4.15144 36.9786 4.28851 37.7329 4.56266C38.4935 4.83681 39.14 5.22976 39.6724 5.74151C40.2112 6.24717 40.6264 6.86249 40.9179 7.58747C41.2158 8.30635 41.3648 9.11053 41.3648 10ZM37.1434 10.2376C37.1434 9.97563 37.1022 9.7228 37.0198 9.47911C36.9438 9.22933 36.8297 9.01001 36.6776 8.82115C36.5254 8.6262 36.3353 8.47084 36.1071 8.35509C35.8853 8.23325 35.6285 8.17232 35.337 8.17232C35.0391 8.17232 34.7729 8.22411 34.5383 8.32768C34.3038 8.43124 34.101 8.57441 33.9299 8.75718C33.7651 8.93386 33.6383 9.14404 33.5496 9.38773C33.4608 9.62533 33.4165 9.87815 33.4165 10.1462C33.4165 10.4021 33.4545 10.658 33.5305 10.9138C33.6066 11.1697 33.7207 11.4012 33.8728 11.6084C34.0249 11.8155 34.2119 11.983 34.4338 12.111C34.6619 12.2389 34.925 12.3029 35.2229 12.3029C35.5208 12.3029 35.787 12.248 36.0215 12.1384C36.2624 12.0226 36.4652 11.8703 36.63 11.6815C36.7948 11.4865 36.9216 11.2641 37.0103 11.0144C37.0991 10.7646 37.1434 10.5057 37.1434 10.2376Z" fill="black"/>
<path d="M58.8397 3.76762L56.6149 16.4334L51.2146 16.5431L50.0547 9.98172L48.8948 16.0679L43.4945 16.2507L41.2507 3.76762L45.9665 3.36554L46.9172 10.9504L48.1912 3.36554H51.8992L53.3824 11.0418L54.143 3.36554L58.8397 3.76762Z" fill="black"/>
<path d="M67.6152 11.6084L67.2159 15.6658L59.2105 16.2689L59.5148 3.21932H64.4587L63.7551 11.6084H67.6152Z" fill="black"/>
<path d="M77.0658 3.27415C77.0277 3.84682 76.9929 4.4134 76.9612 4.97389C76.9295 5.53438 76.8883 6.10096 76.8376 6.67363L72.8064 6.87467L72.7113 8.02611H75.5445L75.3354 10.859L72.4831 10.9504L72.388 12.2846H76.4192C76.3812 12.9547 76.34 13.6218 76.2956 14.2859C76.2576 14.9439 76.2227 15.6049 76.191 16.2689L67.9955 16.4517L68.2998 3.27415H77.0658Z" fill="black"/>
<path d="M88.1706 9.19582C88.1706 10.0487 88.0565 10.8133 87.8283 11.4896C87.6001 12.1658 87.2801 12.7659 86.8681 13.2898C86.4624 13.8077 85.9775 14.2493 85.4134 14.6149C84.8493 14.9804 84.2313 15.282 83.5594 15.5196C82.8876 15.7511 82.1713 15.9217 81.4107 16.0313C80.6564 16.141 79.88 16.1958 79.0814 16.1958C78.7835 16.1958 78.4919 16.1897 78.2067 16.1775C77.9214 16.1593 77.6299 16.1349 77.332 16.1044L77.5982 4.20627C78.2954 3.99304 79.0116 3.84378 79.7469 3.75849C80.4885 3.6671 81.2237 3.62141 81.9526 3.62141C82.859 3.62141 83.6925 3.74326 84.4531 3.98695C85.2137 4.23064 85.8698 4.59008 86.4212 5.06527C86.9726 5.53438 87.4005 6.11619 87.7047 6.8107C88.0153 7.49913 88.1706 8.29417 88.1706 9.19582ZM81.7054 12.705C82.0857 12.6501 82.4312 12.5405 82.7418 12.376C83.0587 12.2054 83.3312 11.9983 83.5594 11.7546C83.7876 11.5048 83.9619 11.2245 84.0823 10.9138C84.2091 10.597 84.2725 10.262 84.2725 9.90862C84.2725 9.56136 84.2345 9.23847 84.1584 8.93995C84.0823 8.63533 83.9587 8.37337 83.7876 8.15405C83.6165 7.92863 83.3915 7.75196 83.1126 7.62402C82.8337 7.48999 82.4914 7.41688 82.0857 7.4047L81.7054 12.705Z" fill="black"/>
<path d="M100.264 14.4047C99.9663 14.7641 99.5987 15.0779 99.1614 15.346C98.724 15.614 98.255 15.8364 97.7542 16.0131C97.2535 16.1897 96.7401 16.3238 96.214 16.4151C95.6879 16.5004 95.1872 16.5431 94.7118 16.5431C93.7927 16.5431 92.9466 16.3938 92.1733 16.0953C91.4 15.7968 90.7313 15.3825 90.1672 14.8525C89.6094 14.3164 89.1721 13.6797 88.8551 12.9426C88.5382 12.2054 88.3798 11.4012 88.3798 10.53C88.3798 9.86597 88.459 9.22019 88.6175 8.59269C88.7759 7.96519 89.0009 7.37728 89.2925 6.82898C89.5904 6.28068 89.9517 5.77807 90.3764 5.32115C90.801 4.86423 91.2827 4.47128 91.8215 4.1423C92.3603 3.81332 92.9497 3.56049 93.5899 3.38381C94.2364 3.20104 94.921 3.10966 95.6436 3.10966C95.9161 3.10966 96.2077 3.12185 96.5183 3.14621C96.8288 3.16449 97.1362 3.20104 97.4405 3.25587C97.7511 3.30461 98.0521 3.37467 98.3437 3.46606C98.6353 3.55744 98.9015 3.67015 99.1423 3.80418L98.8761 7.29504C98.5212 7.1671 98.1536 7.08181 97.7733 7.03916C97.3993 6.99043 97.0317 6.96606 96.6704 6.96606C96.1633 6.96606 95.6879 7.03307 95.2442 7.1671C94.8069 7.29504 94.4234 7.48695 94.0938 7.74282C93.7706 7.99869 93.5139 8.31854 93.3237 8.70235C93.1336 9.08616 93.0385 9.5309 93.0385 10.0366C93.0385 10.3534 93.0828 10.661 93.1716 10.9595C93.2603 11.252 93.3934 11.5139 93.5709 11.7454C93.7547 11.9708 93.9797 12.1536 94.2459 12.2937C94.5185 12.4339 94.8322 12.5039 95.1872 12.5039C95.4281 12.5039 95.6752 12.4735 95.9288 12.4125C96.1887 12.3516 96.4105 12.248 96.5943 12.1018L96.6323 11.389L94.3505 11.3525L94.4646 8.61097C95.409 8.5805 96.3535 8.55614 97.2979 8.53786C98.2423 8.51349 99.1931 8.48303 100.15 8.44648L100.264 14.4047Z" fill="black"/>
<path d="M110 3.27415C109.962 3.84682 109.927 4.4134 109.895 4.97389C109.864 5.53438 109.823 6.10096 109.772 6.67363L105.741 6.87467L105.646 8.02611H108.479L108.27 10.859L105.417 10.9504L105.322 12.2846H109.353C109.315 12.9547 109.274 13.6218 109.23 14.2859C109.192 14.9439 109.157 15.6049 109.125 16.2689L100.93 16.4517L101.234 3.27415H110Z" fill="black"/>
</svg>