<svg width="307" height="299" viewBox="0 0 307 299" fill="none" xmlns="http://www.w3.org/2000/svg">
<path d="M307 149.5C307 232.067 238.276 299 153.5 299C68.7243 299 0 232.067 0 149.5C0 66.9334 68.7243 0 153.5 0C238.276 0 307 66.9334 307 149.5Z" fill="#E9CE2C"/>
<path d="M98.8535 230V63.6406H157.125C177.311 63.6406 192.621 67.5254 203.057 75.2949C213.492 82.9883 218.71 94.2998 218.71 109.229C218.71 117.38 216.615 124.578 212.426 130.824C208.236 136.994 202.409 141.526 194.944 144.421C203.476 146.554 210.179 150.857 215.054 157.332C220.005 163.807 222.48 171.729 222.48 181.098C222.48 197.094 217.377 209.205 207.17 217.432C196.963 225.658 182.414 229.848 163.523 230H98.8535ZM133.131 157.561V202.464H162.495C170.569 202.464 176.854 200.56 181.348 196.751C185.918 192.866 188.203 187.534 188.203 180.755C188.203 165.521 180.319 157.789 164.552 157.561H133.131ZM133.131 133.338H158.496C175.787 133.033 184.433 126.14 184.433 112.657C184.433 105.116 182.224 99.708 177.806 96.4326C173.464 93.0811 166.57 91.4053 157.125 91.4053H133.131V133.338Z" fill="black"/>
</svg>
