<svg width="307" height="299" viewBox="0 0 307 299" fill="none" xmlns="http://www.w3.org/2000/svg">
<ellipse cx="153.5" cy="149.5" rx="153.5" ry="149.5" fill="#E9CE2C"/>
<path d="M216.45 176.585C215.155 194.485 208.528 208.577 196.569 218.86C184.687 229.144 168.995 234.285 149.495 234.285C128.167 234.285 111.371 227.125 99.1074 212.805C86.9199 198.408 80.8262 178.68 80.8262 153.619V143.45C80.8262 127.454 83.6445 113.362 89.2812 101.175C94.918 88.9873 102.954 79.6563 113.39 73.1816C123.901 66.6309 136.089 63.3555 149.952 63.3555C169.147 63.3555 184.61 68.4971 196.341 78.7803C208.071 89.0635 214.851 103.498 216.679 122.084H182.401C181.563 111.344 178.555 103.574 173.375 98.7754C168.271 93.9004 160.464 91.4629 149.952 91.4629C138.526 91.4629 129.957 95.5762 124.244 103.803C118.607 111.953 115.713 124.636 115.561 141.851V154.419C115.561 172.396 118.265 185.535 123.673 193.838C129.157 202.141 137.765 206.292 149.495 206.292C160.083 206.292 167.967 203.893 173.146 199.094C178.402 194.219 181.411 186.716 182.173 176.585H216.45Z" fill="black"/>
</svg>
