<svg width="307" height="299" viewBox="0 0 307 299" fill="none" xmlns="http://www.w3.org/2000/svg">
<ellipse cx="153.5" cy="149.5" rx="153.5" ry="149.5" fill="#E9CE2C"/>
<path d="M95.8535 237V70.6406H147.041C161.666 70.6406 174.729 73.9541 186.231 80.5811C197.81 87.1318 206.836 96.501 213.311 108.688C219.785 120.8 223.022 134.587 223.022 150.05V157.705C223.022 173.168 219.823 186.917 213.425 198.952C207.103 210.987 198.152 220.318 186.574 226.945C174.996 233.572 161.933 236.924 147.384 237H95.8535ZM130.131 98.4053V209.464H146.698C160.104 209.464 170.35 205.084 177.434 196.324C184.518 187.564 188.136 175.034 188.288 158.733V149.936C188.288 133.025 184.784 120.229 177.776 111.545C170.769 102.785 160.523 98.4053 147.041 98.4053H130.131Z" fill="black"/>
</svg>
