<svg id="Layer_1" enable-background="new 0 0 510 510" height="512" viewBox="0 0 510 510" width="512" xmlns="http://www.w3.org/2000/svg"><g><path d="m119.343 382.665 19.648 22.67 29.409-25.486 39.234 34.001 39.227-34 29.405 25.485 19.648-22.67-49.054-42.515-39.228 34-39.232-33.999z"/><path d="m387.628 0h-129.5c-34.263 0-62.447 26.449-65.252 60h-45.248v69.457c-78.255 25.367-135 98.947-135 185.543 0 107.523 87.477 195 195 195s195-87.477 195-195c0-86.596-56.745-160.176-135-185.543v-69.457h-44.572c2.651-16.972 17.368-30 35.072-30h129.5c8.272 0 15 6.729 15 15s-6.728 15-15 15h-30c-24.813 0-45 20.187-45 45s20.187 45 45 45h60v-30h-60c-8.271 0-15-6.729-15-15s6.729-15 15-15h30c24.814 0 45-20.187 45-45s-20.186-45-45-45zm-15 315c0 90.981-74.019 165-165 165s-165-74.019-165-165 74.019-165 165-165 165 74.019 165 165zm-135-192.692c-19.825-3.075-40.133-3.081-60 0v-32.308h60z"/><path d="m446.411 82.5h47.434v30h-47.434z" transform="matrix(.949 -.316 .316 .949 -6.708 153.662)"/><path d="m455.128 148.783h30v47.434h-30z" transform="matrix(.316 -.949 .949 .316 157.813 563.954)"/><path d="m267.628 284.493v15.507h30v-33.507l22.718-13.631-15.435-25.724-75 45 15.435 25.724z"/><path d="m147.628 300v-15.507l22.283 13.369 15.435-25.724-75-45-15.435 25.724 22.717 13.631v33.507z"/></g></svg>