<svg width="100" height="100" viewBox="0 0 100 100" fill="none" xmlns="http://www.w3.org/2000/svg">
<path d="M86.0351 17.2885L75.8789 27.4468L81.0547 32.6236C82.8906 34.4598 82.8906 37.4292 81.0547 39.246L77.6563 42.6451C79.961 47.7437 81.25 53.4089 81.25 59.367C81.25 81.8129 63.0664 100 40.625 100C18.1836 100 0 81.8324 0 59.3866C0 36.9409 18.1836 18.7537 40.625 18.7537C46.582 18.7537 52.2461 20.043 57.3437 22.3481L60.7422 18.949C62.5781 17.1127 65.5469 17.1127 67.3633 18.949L72.539 24.1258L82.6953 13.9676L86.0351 17.2885ZM97.6563 11.721H92.9687C91.6797 11.721 90.625 12.7759 90.625 14.0653C90.625 15.3546 91.6797 16.4095 92.9687 16.4095H97.6563C98.9453 16.4095 100 15.3546 100 14.0653C100 12.7759 98.9453 11.721 97.6563 11.721ZM85.9374 0C84.6484 0 83.5937 1.05489 83.5937 2.3442V7.03263C83.5937 8.32194 84.6484 9.37684 85.9374 9.37684C87.2266 9.37684 88.2813 8.32194 88.2813 7.03263V2.3442C88.2813 1.05489 87.2266 0 85.9374 0ZM92.5586 10.7443L95.8789 7.42333C96.7969 6.50518 96.7969 5.02051 95.8789 4.10237C94.961 3.18422 93.4766 3.18422 92.5586 4.10237L89.2383 7.42333C88.3203 8.34147 88.3203 9.82615 89.2383 10.7443C90.1757 11.6624 91.6601 11.6624 92.5586 10.7443ZM79.3164 10.7443C80.2344 11.6624 81.7187 11.6624 82.6367 10.7443C83.5547 9.82615 83.5547 8.34147 82.6367 7.42333L79.3164 4.10237C78.3984 3.18422 76.914 3.18422 75.9961 4.10237C75.0781 5.02051 75.0781 6.50518 75.9961 7.42333L79.3164 10.7443ZM92.5586 17.3862C91.6406 16.4681 90.1563 16.4681 89.2383 17.3862C88.3203 18.3043 88.3203 19.789 89.2383 20.7071L92.5586 24.0281C93.4766 24.9463 94.961 24.9463 95.8789 24.0281C96.7969 23.11 96.7969 21.6253 95.8789 20.7071L92.5586 17.3862ZM21.875 53.1354C21.875 46.2395 27.4804 40.633 34.375 40.633C36.0937 40.633 37.5 39.2264 37.5 37.5073C37.5 35.7883 36.0937 34.3817 34.375 34.3817C24.043 34.3817 15.625 42.8014 15.625 53.1354C15.625 54.8545 17.0313 56.261 18.75 56.261C20.4687 56.261 21.875 54.8545 21.875 53.1354Z" fill="#FF8C42"/>
</svg>
