<svg width="676" height="669" viewBox="0 0 676 669" fill="none" xmlns="http://www.w3.org/2000/svg">
<g style="mix-blend-mode:hard-light">
<path d="M581.598 115.66L512.941 183.619L547.93 218.252C560.341 230.536 560.341 250.401 547.93 262.555L524.956 285.295C540.536 319.405 549.25 357.305 549.25 397.166C549.25 547.328 426.329 669 274.625 669C122.921 669 0 547.459 0 397.296C0 247.134 122.921 125.462 274.625 125.462C314.895 125.462 353.184 134.088 387.644 149.509L410.617 126.769C423.028 114.484 443.097 114.484 455.376 126.769L490.364 161.402L559.02 93.4431L581.598 115.66ZM660.156 78.4137H628.469C619.755 78.4137 612.625 85.471 612.625 94.0965C612.625 102.722 619.755 109.779 628.469 109.779H660.156C668.87 109.779 676 102.722 676 94.0965C676 85.471 668.87 78.4137 660.156 78.4137ZM580.938 0C572.223 0 565.094 7.05724 565.094 15.6828V47.0483C565.094 55.6738 572.223 62.731 580.938 62.731C589.652 62.731 596.781 55.6738 596.781 47.0483V15.6828C596.781 7.05724 589.652 0 580.938 0ZM625.696 71.8793L648.141 49.662C654.347 43.5196 654.347 33.5872 648.141 27.4448C641.936 21.3024 631.902 21.3024 625.696 27.4448L603.251 49.662C597.045 55.8045 597.045 65.7369 603.251 71.8793C609.588 78.0217 619.623 78.0217 625.696 71.8793ZM536.179 71.8793C542.384 78.0217 552.419 78.0217 558.624 71.8793C564.83 65.7369 564.83 55.8045 558.624 49.662L536.179 27.4448C529.973 21.3024 519.939 21.3024 513.734 27.4448C507.528 33.5872 507.528 43.5196 513.734 49.662L536.179 71.8793ZM625.696 116.314C619.491 110.171 609.456 110.171 603.251 116.314C597.045 122.456 597.045 132.389 603.251 138.531L625.696 160.748C631.902 166.891 641.936 166.891 648.141 160.748C654.347 154.606 654.347 144.673 648.141 138.531L625.696 116.314Z" fill="#D64343"/>
</g>
</svg>
