<svg width="485" height="450" viewBox="0 0 485 450" fill="none" xmlns="http://www.w3.org/2000/svg">
<ellipse cx="242.5" cy="225" rx="242.5" ry="225" fill="#E9CE2C"/>
<path d="M221.903 220.195H239.499C247.878 220.195 254.086 218.101 258.123 213.911C262.16 209.722 264.179 204.161 264.179 197.229C264.179 190.526 262.16 185.309 258.123 181.576C254.162 177.844 248.678 175.978 241.67 175.978C235.348 175.978 230.054 177.729 225.788 181.233C221.522 184.661 219.39 189.155 219.39 194.716H186.369C186.369 186.032 188.692 178.263 193.339 171.407C198.062 164.476 204.612 159.067 212.991 155.183C221.446 151.298 230.739 149.355 240.87 149.355C258.466 149.355 272.253 153.583 282.231 162.038C292.21 170.417 297.199 181.995 297.199 196.772C297.199 204.39 294.876 211.397 290.229 217.796C285.583 224.194 279.489 229.107 271.948 232.535C281.317 235.887 288.287 240.914 292.857 247.617C297.504 254.32 299.827 262.242 299.827 271.383C299.827 286.16 294.419 298.005 283.603 306.917C272.862 315.829 258.618 320.285 240.87 320.285C224.265 320.285 210.668 315.905 200.08 307.146C189.568 298.386 184.312 286.808 184.312 272.411H217.333C217.333 278.657 219.656 283.761 224.303 287.722C229.025 291.683 234.814 293.663 241.67 293.663C249.516 293.663 255.647 291.606 260.065 287.493C264.56 283.304 266.807 277.781 266.807 270.926C266.807 254.32 257.666 246.018 239.385 246.018H221.903V220.195Z" fill="black"/>
</svg>
