<svg width="485" height="450" viewBox="0 0 485 450" fill="none" xmlns="http://www.w3.org/2000/svg">
<ellipse cx="242.5" cy="225" rx="242.5" ry="225" fill="#E9CE2C"/>
<path d="M300.341 326H186.312V303.377L240.127 246.02C247.516 237.945 252.962 230.899 256.466 224.882C260.046 218.864 261.836 213.151 261.836 207.743C261.836 200.354 259.97 194.565 256.237 190.376C252.505 186.11 247.173 183.978 240.241 183.978C232.776 183.978 226.873 186.567 222.531 191.747C218.266 196.851 216.133 203.592 216.133 211.971H182.998C182.998 201.84 185.397 192.585 190.196 184.206C195.071 175.827 201.927 169.276 210.763 164.554C219.599 159.755 229.615 157.355 240.812 157.355C257.951 157.355 271.243 161.469 280.688 169.695C290.21 177.922 294.971 189.538 294.971 204.544C294.971 212.771 292.838 221.149 288.572 229.681C284.307 238.212 276.994 248.152 266.635 259.502L228.815 299.378H300.341V326Z" fill="black"/>
</svg>
